<svg width="1200" height="800" viewBox="0 0 680 460" xmlns="http://www.w3.org/2000/svg">
<rect width="680" height="460" fill="#1C2A45"/>
<ellipse cx="340" cy="400" rx="180" ry="28" fill="#0F1A2E"/>
<path d="M290 390 Q270 310 310 240 Q295 290 340 230 Q385 290 370 240 Q410 310 390 390 Z" fill="#7A2800"/>
<path d="M270 390 Q250 300 285 210 Q268 275 320 195 Q330 180 340 160 Q350 180 360 195 Q392 275 395 210 Q430 300 410 390 Z" fill="#9B3500"/>
<path d="M295 390 Q272 318 305 255 Q315 295 340 248 Q365 295 375 255 Q408 318 385 390 Z" fill="#C94800"/>
<path d="M305 390 Q285 325 315 268 Q322 300 340 260 Q358 300 365 268 Q395 325 375 390 Z" fill="#E55A00"/>
<path d="M312 390 Q295 335 320 280 Q328 308 340 272 Q352 308 360 280 Q385 335 368 390 Z" fill="#F07020"/>
<path d="M318 390 Q303 340 325 292 Q332 314 340 282 Q348 314 355 292 Q377 340 362 390 Z" fill="#F48A30"/>
<path d="M324 390 Q312 348 330 308 Q335 325 340 295 Q345 325 350 308 Q368 348 356 390 Z" fill="#F4B040"/>
<path d="M328 390 Q318 352 333 318 Q337 330 340 305 Q343 330 347 318 Q362 352 352 390 Z" fill="#F8C850"/>
<path d="M332 380 Q325 355 335 328 Q338 338 340 318 Q342 338 345 328 Q355 355 348 380 Z" fill="#EEF5C0"/>
<path d="M335 365 Q330 345 337 325 Q339 332 340 320 Q341 332 343 325 Q350 345 345 365 Z" fill="#F8FAE8"/>
<ellipse cx="340" cy="308" rx="8" ry="14" fill="#FFFDE8"/>
<ellipse cx="340" cy="310" rx="4" ry="8" fill="#FFFFFF"/>
<circle cx="295" cy="270" r="3" fill="#F8C850"/>
<circle cx="380" cy="255" r="2.5" fill="#F4B040"/>
<circle cx="308" cy="228" r="2" fill="#EEFABD"/>
<circle cx="368" cy="240" r="2" fill="#EEFABD"/>
<circle cx="325" cy="208" r="1.5" fill="#FFFFFF"/>
<circle cx="355" cy="215" r="1.5" fill="#F8FAE8"/>
<ellipse cx="340" cy="345" rx="18" ry="18" fill="#0F1A2E"/>
<path d="M322 358 Q310 375 300 388 Q318 382 340 380 Q362 382 380 388 Q370 375 358 358 Z" fill="#0F1A2E"/>
<path d="M300 388 Q295 392 285 395 Q310 397 340 397 Q370 397 395 395 Q385 392 380 388 Z" fill="#0F1A2E"/>
<path d="M322 362 Q305 368 298 374" stroke="#0F1A2E" stroke-width="5" fill="none" stroke-linecap="round"/>
<path d="M358 362 Q375 368 382 374" stroke="#0F1A2E" stroke-width="5" fill="none" stroke-linecap="round"/>
<circle cx="298" cy="376" r="5" fill="#0F1A2E"/>
<circle cx="382" cy="376" r="5" fill="#0F1A2E"/>
<ellipse cx="325" cy="188" rx="5" ry="9" fill="#A0D585" opacity="0.7" transform="rotate(-20 325 188)"/>
<ellipse cx="340" cy="182" rx="5" ry="9" fill="#EEFABD" opacity="0.8"/>
<ellipse cx="355" cy="188" rx="5" ry="9" fill="#A0D585" opacity="0.7" transform="rotate(20 355 188)"/>
<ellipse cx="315" cy="198" rx="4" ry="7" fill="#A0D585" opacity="0.5" transform="rotate(-35 315 198)"/>
<ellipse cx="365" cy="198" rx="4" ry="7" fill="#A0D585" opacity="0.5" transform="rotate(35 365 198)"/>
<rect x="0" y="412" width="680" height="48" fill="#0F1A2E" opacity="0.9"/>
<text x="340" y="432" text-anchor="middle" font-family="Georgia,serif" font-size="13" fill="#6984A9">10</text>
<text x="340" y="452" text-anchor="middle" font-family="Georgia,serif" font-size="17" fill="#EEFABD" font-style="italic">Fuego que Sana</text>
</svg>
